<mxfile host="Electron" modified="2024-02-15T08:56:53.278Z" agent="Mozilla/5.0 (Windows NT 10.0; Win64; x64) AppleWebKit/537.36 (KHTML, like Gecko) draw.io/21.2.8 Chrome/112.0.5615.165 Electron/24.2.0 Safari/537.36" etag="3WKojv3Lholi6aIbENpV" version="21.2.8" type="device">
  <diagram name="Page-1" id="2XWkQP5S-hDbL94sL5Vg">
    <mxGraphModel dx="2058" dy="1180" grid="1" gridSize="10" guides="1" tooltips="1" connect="1" arrows="1" fold="1" page="1" pageScale="1" pageWidth="3300" pageHeight="4681" background="#999999" math="0" shadow="0">
      <root>
        <mxCell id="0" />
        <mxCell id="1" parent="0" />
        <mxCell id="APLwThIm-aDqV8bCMrbt-1" value="SplitView" style="rounded=0;whiteSpace=wrap;html=1;fontSize=25;fillColor=#dae8fc;strokeColor=#6c8ebf;" parent="1" vertex="1">
          <mxGeometry x="1323" y="140" width="657" height="60" as="geometry" />
        </mxCell>
        <mxCell id="OU_xJNSJkc4jjJ8IZIRk-1" value="" style="shape=image;verticalLabelPosition=bottom;labelBackgroundColor=default;verticalAlign=top;aspect=fixed;imageAspect=0;image=data:image/png,iVBORw0KGgoAAAANSUhEUgAAAXIAAAI3CAYAAACGWdBLAAAAAXNSR0IArs4c6QAAAARnQU1BAACxjwv8YQUAAAAJcEhZcwAADsMAAA7DAcdvqGQAAC4ESURBVHhe7d0HnBx3fffx7+7eXlU5NeskWba6ZMu2XDAypljgGNNNKIaACaYY/IL4AdIekkASnhBSIJDwEB4nT0gwhJaH3hIcTCjGwRgDrhgsq1nN6uV0/W6f339m9m5vb/dW0t7e7e/0eetmZ+Y/dct857+zM6PU+gsuzKlYLqcShaF4fBVGqDS5f1U8wxq/ONP/tcd4Ukm7JqqeeU3XbspVfHap8ceIB48eJy4aKRsb5GNCvESAlwz6yVDlUitMPjXPqV7U+Nl7f3HH39YccP8Eyqr6mVWcweS/dtESiwK+ONALxxkJ8hLhnCtO8IoBXmFrrTC4kionnwBT9wSm/rnjTDY6Uk5RVRMHVc+gpiquXRUjRENOItDjIC8K6PEDPOmyVtFYk6DCEqsbPMWqXLspfnL1/dr6N3pTroGqFlDztatKxbWrfoQJFS1t5CES945ej8JAT61ff0FBbEeZPspIqCdtaxWNUqD8kEh1gydAva/fVKrxs5veL15+e6pj9buCVa9ZxRnU9rlP/OLjCaLHkYdIqkyYp863II9KbEsbFeLFtfD4L1HcP1EqzLG6wROgditQ+3WvVv2v4Zlt9AZeTyquWfUj1FRRdpYw8es3qrY9+iHpjLuD0JkE+egQL66Fj/QWhnswuq/Stl5hcGWFK1lC1fOvWq1fgNM39a8NPBuJjdNQceKq5l616ldv/BFOffKRgqgrCe3CcA9GDTt//fqC3C5XCy+qrY/pzytZOKK6wSdhqpc/lWq89r5nX3Mjm9cUqXoFpvwZnLaKa179COOqxfKjkqJadyhNWvmH4fFS552/Pt6GikK8MNwbslm1tbWqMduoxqZGZTKZ09ryCpdQl2q+eqe/gDp/5TDNxbFxuqqbuqIaz75aSfyeGptkcHBQvb296uvrV1dXlwb6+608nlc+2POPcZCPE+IzZ87U7PbZOni4S929ferpHVD/wGAyQqF4pqNVGz/F8zyV+Y23PqWG1ULh+k7WMuFPtduJF96e59Sub7Yho+amrFqsmT93po4cOarjx45ZlMRZMirMzzvv/OHcDiue7wnHW+bPn28lGe3Zf0x9/QPxgLKqCapSL9jJzq/ci13N+kyU/LrVw7qgfpX7DE83Hp9nPaxzTo3ZBi1a0C7Ldu3btz8pt2SJoiWl9Mhq5kM8tHOaZTXxEOLbdx86iRAPwsSn+6TD2hSG3akEX37a/DSF3VOtntYFvuQ/O9PpM1T8nDw8r/pYz5DB23cfUDgYEo6SxD9sjmR2OrRC30iIhyp9Q3Q4JdTET93phnlQ7Yvm4YOBM1O84ZVu8p/7wuZMcaY+79OzZ/8Rtc+eHWV0YWZbkFtHNIp1JR1tM9qiY+InVxMHUF7YqPJbGFCdkMkHDh9Xa1tr1J/P7HT8GQupnpRYO5yd0t3bbz2nu6fkgwvEKm07Z3ot1EtW1M/7FE46CRmdT/GQ3fEx8vxraQWhM5xiGM5OGe10Ah3A2G0n33+mb0/DwVPQoJIeq2Q3NTXFr1YS5qm1a9flcz0py2nZucv00Oa9UWk5s2a2KNsQH2I/Ff0DQzp2vDvpA3ByplvIeX4+k73uY5e3ftXZ2rZ9m3WlojNXUmssyMOA/KGV0F627Fw9vPmJqL+cD73/z7Ry1cqkr7T8DV527T2Q33HoxLGD+u3fe7fS6UxcAKCMyQ6MyeT9uU3m+o9d1vmrlmjbtu0jpx9GpQUhfrLaZ8/U+nWrx23OX7sqaq656go9e1PcLJg/z5YzlMwFwFhhOyy1LU7/QzF/9id/oB2P/ly7tjxQsgnDwjj15q7vfF1Xbrw86RsrDPvhHV9L+iZK/ihKvkZufdFHJyk9mRr5Jz72YZ199kp9+QePKpXOxU0mNEN63oZV6lg4W52dJ6Jx29ra9IUfbo26l8/s0g033qxMJhv1F3vw3u9pzpz2pE86fPiILrjsqqQPOBOUCvEgH+TlhntS+jmEoL7meS/TnidK58/cOXP0/W9/VeesvjgpmQpj1z0E9Uf+9i/1W29/p+66+56kNDbesJMzdnlxjTx/aCVfIz8N4f4BqVRGW492atvx49redUyP9x7Vzv4j6u8fimrdYfcQ7yJimcZSl/aP9ZJXvE5LVmyImnvuDXvn+7Tx8kuTocCZbjrUzEs/h3AfpxDix44dL9ls274jvtdTnQkBHYI6BHZhzbz6ED854wR5CODSe81gcCg+PLJgXpNSjQM6OnBM+3sO6onu+PLRVNGkzXN61Dq/K+k7ea9709t0+7e/q3e98x1JCYA4CPMNaqc4B8tnYnGYT1aIBydRIy+94vnSXzyxU1uP7NGRgcPq1nH1pTqj8lzy+crf+autvVOtM+Jhp+rOu+4ePtzytS98Uv/yj38X1dJD+w03virqzjfv/dN3RuOF7rxQdud3Ro5Phe4wXRAO5RRPG9phOWFY4XTA5CgXzuVCxGuYT7+dUGGYT1aIB+MEeXiR881Y+dJuC+5sS7+yzf1qaOpT1pqIfebyIR6sW7BUq9pXJH2n5sGHHlH77FlJn3T5ZRdHh11Cbf1jH//08GGYcEjmxS98bjTOT392/3BYb3rGU0dNH7rDdCGkP/S//2F4+vy0waWXXKQ33PwOPe1ZL0xKgMlUbvsrFealA37XlvtPqsF4Sr0Hk6nczns0C/L8UexkgvCD58lNG4kC3JpsU2gKgtyee+FsVs1ZGTWn44L163Tk6Mh9X778tX9PumIhkEON+ouf+5ekRLrvgYdGBXM41h5q2qEJ3cHyZefof/3x/4ymDU2o9efDP+wI7r7np1E3MLVOJszHWrLiopNqMHEKD6cUHmY5PeO8z2FQNNgeLLNP+8fOvDjE4wBvDO3GOMjjM2DyK5JTX3+/urt7kv5TEwL50c1bkr7RQoh/9/s/tA9kXCPPe9ef/mUU1CG4w7Th8MyGC9dHTejOy9fG802oqQOTJ7+NnKr89nW609eLfI0339S78utbfEy8+Jh5LZ1+kNtz6O3t1sb5K/WkOat16aw1urjtPF3Usj4qj0eJn2jI9KGhoeEfSE9FOFYdAjkcRiln67YdUfvmm14btfNCLT4cVrn1/94WBXSocYd55cM6TBeOswP1b3RoTFfhf8UJpxiW09FxVjRO/Yjfl3I/bE5WmJ92kIdMPm/tUr35mb+mN1/1bN309OfqjU9/kd7w1Ou0bu3Zam1t01lnLdDceXOtlp6NgjydPrkPYzhEkj/cEYx3HnmojecPj8y3ZRUKNfFwPDx/iCSck54P/SAc/372r20aXlb4cROYXKcS0GHc6R3ot/3r56LzxEtdDBSaH//g9micehLO437/+/54TIjn5cP8A3/xJ0nJxEutWbs2uQ4oF9Wcw8OyZcv08GPjXxD09ltu0iUXlz++lk6noybsPQuvGL3/vgf1/g/9vdKZhqQEwKnzfkhlPN6eWy4K81O5Mv7klJ/f+SuTC4Jsvx5d03O6QR5d8GO17MILfk5GtFAL+FSq6sPzwBlsokOjnnh7brVa3/LzLQ7y007TEMShVh0utT+VJkxDiAOYPqb+cBeJCgDOEeSAO9P5sEqQ/1E335ypTv65E+SAGyHAp3OIl3t+Z3KYnxyCHHBhutfCg/Fq4IT5eAhywAWCDOUR5IAb49VYzwTszMpJx9/YRs4hPxO+wAG+lQu0MyHoCfO8JLqjNjVyYFog4M5kqTVr1kb18MIa+fJly/SVr/yfaAQAvlx22Qv0wY9+WBdt4Ba109WNr3iNtm7bFu++q/k/OwEA9YEgBwDnCHIAcI4gBwDnCHIAcI4gBwDnCHIAcI4gBwDnCHIAcC6dv14/PESt6DHuAgDUnyith++NlaNGDgDeEeQA4BxBjhrLKJ1u5t58QA0R5FMhNUONLcvU0rJY2fQ0jrhUq7JNS9Xc1K4MSQ7UDEE+RVJWU02lMklfsZQNa1Ym3ZD0O5NqVCa7yHZUi5TNlHuOACYKQV530haCS9QcausZX0GeSs+wGvgSC/Clasq2KpUb4PwnYBIQ5PXIaur+jkTYt4hMu+18wvHwIQ0N7Fdv3zGCHJgEBDkmTq5XgwMH1Nu9XT0W4oPRfzsFoNYI8roRjivPUTbbrkz0A6jVcMOhiqgsNG0l3qwwzkxlGxepuXmpNUvU1DhPDWUOyUTjhnk1JPNKNashu1BNzWfbtIvVlJ2pdKrwu0CD0g3z1NS0JJ5/01lW424q820hl9TCj1qADw2XAag9grxepDLKNMSh3ZCOfyBMZWZb/9y4aWgN/zVfgUY1NC1VS7OFqw1Lpxuj0/wyDe1qbDpHzY0zxgZuqsWCO8yrxeY9xwJ8sRqzM2zH0WTTttiO5CwL7LPUEBaUalNjCO9G27FkmuP5Z2xHEEK91LwBTBmCvF7k+jTQt1e9vU+of3AgFCg3eND6Q5k1fcc0NFzBbbAQX6TGTNZG61Z/7051d2+1Zkd0SGMol7Ka9AKrYTcl4xfLWqDPUmpwn3psuq7uberpPRLPP2XfAiy8s43zLdB7bd6PJ/Peqb6BPlsr+xbQYDsDzkYB6oYFeXK9fhIS4bDmcF5gEg1qaLBLg9bkAzs31GP9J5Kmd/h9SWXmxWe05E6or2ePBb8Nyw1Z058c3ui0cdMW5mXO37bad3ooHm8oHAbJhWXbTiOaLsw/BPWghfhem7eFdzTvXtvRPKGBoXDYJGu19HKHWOCJ7ZZ5H53K50HIbGrk7oRj6a228YUzQw5poMQPirnBoxa4Vh6di17iLQ6hPNA9ZoedG+rUYFKYGzyShHahfg1arTxIpRsJgDrWZJt28XemcO1Cs32by1pX2trN1hX643ZmzPjwgyD3JtVktezwtlmoDg6GgrFNKtSgQyJbrbzkRUV9VhMfuwNQOO87KrdvaUPhMEqx8O1tMCkPy0K9Ct/IbJdftIHH71kI9KyN0acB9VjTa5WC0uPDC943b1INyY+eTco2n6vW1uVjm5az1ZgJb20S7MVyFsYlcjxs/nFjG/ZQ2EmUMHxGCkFez/qTcA6179FCjA+FakA0Rvg3ZN22ay8zPjwgyN3Jv2UhbG1zLdvYphlq1SUDG9Nd/N0pxPbYY+DhO1XxQbPxxkf9I8jdyW+C4SyXnerpeXycZqd6B3qT8XFmCdEcf28aHcxxLXyscuPDA4Lcm1w4vh06wiEWNjmUFz4d4aNSKrZLOdXxUT8I8roUNiX7imtBPSaqc70aio5fNyjTMJM3EGXkPzvFsVzu0Em58eEBOVB37CtuLv6hMVXyP2QY0ODAiTjqM3PUmG0rMY5tlJl2G9ZSYhjOBGn7l7FPSTgeXhzNYVjx52K88VH/CPK6k4suDIoOn6TDZfQdamxcqKamecMX94QrPvv6wwVCGaWzHWppOduGL7DgnmfjLlJz+E8rmubynzmcwcLZJ+EnzXCN8GghqMOphnGch3/hnPJwVUDp8eEBQT5FovMGhk/lKzJ01IK608awzSzdpoaGcD+UwlQe0mD/7ugGVdH54OHc8swsNWTbbdxWpVPxxUJ9/T22nEKhL2zI5etcw+eRx70lxNOPN0ah/PwwuULdOj6lcCz7dNjQtJqii4EarB1CvPz4qH8E+VTIdaqve5u6unerP389/ighiJ9QT9c2dfeEM1N2qLv7wPBVl7EwzoHoXind3eEMlV3RWSo9Yb5d4TayR8bcRjY3uF/dXTZ+z2GbupQ+DfRut+l3qC+62GisMI+ecedRwHZIvd1b7Hk+oQESYlKFy7nKvz+h5j2gbmt6relRf3RRUMX3E3WLIJ8yIdkqpdugVdrDj5v944xpdeNwJstQjzU2bnJ8vbxKyzyZ9ao0HPVs5N0LYX+y361Qz9LxN9/kzcx/DeadBYD6FQd2ktnUyAHAPYIcOGNweuF0RZADZ4gQ4+FmWZV+RYE/BDkAOEeQA4BzBDkAOEeQA4BzBDkAOJdatXpNuDQwPiUpaue0fNlyveKvD0UjAPDlg6/u0gc/+mFdtOGipATTzWuvv0Fbt22NbnoW/u9HauQA4BxBDgDOjQry/OX7AIA6Z1mdj2tq5ADgHEEOAM6NOmsl+t9crFm+nLNWAK/CWSsbN25UR0dHUoLp5ic/uVdbt26NzlgJ/0k7NXIAcI4gBwDnCHIAcI4gBwDnCHIAcI4gBwDnCHJMvFSzmrIdmtm0RG0NrXzIgBpjG5sK2Wv1zPX/qddc8FFd3NqUFPqXzl6mC5d9XK+66Pv6zQu/oVeu/6p1f0+vvfAT2nTWxWpJJSMCmFAW5MktbONLgqIu1F4mM1fN2TlqSPpHy6ix8UItaVvoZk/bOOPNev55t+qKuReqRXt14Ph3teXIPTrQ22kBv16rz75V1y17nmYR5sCEGM7tXI4aef2ZqUVLPqlXXfCPumK2nyBPN5yjmaltemzn6/WZ+6/Tlx79Hd2x5WZ96aEX6Ivb/0PHclnNnHOLLm9fGO6gDGACEeR1KJOZaTX1dLj61o3U4L2659HX6Tv77lNXuNXDsBM6fPBv9N+Hdlvd4Swtnnu5WpMhACYGQY4J0X38i3q0qzPpK3ZEh088rn7rymaXqIVPHTCh2KTqRXqFli+8SZcueo1WtLQq3AanqeVaXbQolN2kSxZerTlj3q1Gtba9QJed+3d64brP6aXr/lnPWXaL1s1cpEwyRqGm1udF87vkrE2abfPKZDdozeL36XlrP62XrP2onrX4BZrfUDBleqEWzX+7rl59m156/uf04lXv0WVz1qrplL8p5DQ01K2h0JXr1iA/xQATiiCvF6kFWjz/jbps0Ru0tq3dCtJqnfVK6785bhZcoRmFAWrBv2755/SKte/RpfOepo7WFZrTukFL596op6/+vF5y7nPG/LCYyj5FF9i8Lp57uebNfpOes+4fdFXHNVrctlbz2jZqZcd7dN2692pNU6PSjVfpKWs+q+efYzuWmes1t3mVFsx6gS5d/nFdd841o9eloqyamxZEP+z29+1WD0EOTCiCvF4MPaZfPv67+tZjf6ifHN1vBYM6fvhDuuOxd1jZO3T741/WoVClDVKLtercD+upc85Ruv9e/XzLq/SZ+6/Sbfe/SF/Z/iUdHGxU+7w/1KaF55U8KyaVWqrVHS9S5vCf6IsPPEu33XetPr/l49o7MGQBfo0uX/KbunjpO3Ve42b9/LHr9an7nqFPPPBq/deBX6nfvgXMnnuLLp01O5nbSchconVz19q6HNCeI/erJykGMDEI8nqRO6ADx36gHUfv0v7+foWTQgf67rf+7yfNQzoR1WRTam2/RU+es0ip/u/rh796q+458kt1DnSpf2CX9h18n76143adUJvOWnCDzs5Gcx8l03KF2k/8pW7f+S0d7D+u/sEDOnzkI/rO499RVzR/+wYw87Ae3PJ226k8pq7BLvX2P6LNj79LP+3sslVYpMWzz9fJnQE/T0sX/47V8hs00P1NPXxsXzhhCsAEIsi9SS3XygVPtZju0t59H9GjveEnxEJDOnH037S5u1+p7Aad0zorKS8w+IB+sf/HRTXjnE4c/4Z29ccx233sk3qo80TUPSy3TTuO/EoD9rFpbl5R+QKf1DwtWfxX2rRgpTL9d+rurbdqz2AyDMCEIci9aThPi5rbLK+3a++JQ0qlGpVJFzWpE+rq77aR29XePG/Mm5wb3KbDfX1JX4Ghg1azDzuGXh078SuFOYw2ZLX+IxbkltHp1pI/qA7LrNP65bfpOR2XKNv3Xf3osT/Swz29yUAAE4kgdyaTXazW8K6l1+ni1d/Say++UzduKGou+rSumBVq4g1qyLSMuQBnaPBA6R8ccz3qHwpV5i519x2NzjIZLafBwU6FMVKpBqVL1shTyjZfp01rP6Yr289Sb+fHdPsvf18Plj01EUC1CHJnUuk2NYQAzR1XZ+9WHekp3Rzu3qxD1nQO5MYEee00aEb7O/XCte/W6qZO7drzP/SlRz+qnf0cTwFqiSB3ZmjwuCybLci36OEtN+gLv3jFOM0Nun3fL6JDIbWXVtvs39Vzlr1Mc/Ww7n/s1fqPPT9KfqAFUEvp/CkE0VXV1oSzJfK30UL9GerfqqPhipr0Qs1paklKp1666df19HNfpjm5+/TTzW/V3ccOlDg0A2AixBkdBXbURY287gxpKBcORaSj49tj3qCBR7Sr66h1LNI5C65V++QdNxnHTHUs+A0taejR/n0f0gMnjiflACYDQV53etXdd0iD9ta0tFwUXUo/2m7t2H+HjtpuuHnWzXrG4k2aOWacZs2cdYOuWPgkNSYlNZU+V0tmnm1rfEgHux5PDuWEPUy5BsBEIsjrzoCOH/+hDlqlvKHtjbp2zd/oqnP/Ss9d/TYtTc736zn2Ed2572H1qV0LF35AL13/aT1/xbt1xeJbdOWyD+vFF9yu61fdonMaJ+ntTc/XjIZwDekirV7+Nf3mhu/rtRu+V6b5jl569sbJ2cEAZwiCfEoMamCwy5ru6FS+YgNdn9Vdu/9TR4esVt66SWvmXa2OxsLj4ce0e9fN+tq2z2pPX58asmu1uP3FurDjRq2fe6XmN3TqwCEL+70/s7Av1K2BoT5rwpWjpeQ0ONQTNWV/II1OUYznMSw9S1n7JjGYs6lSDcqks2WbhnRjmdMWAZyu1KpVq+PfOcOjNeHf8uXL9cq/PhyPgRpIKZXK2KO92rnBMqFqY6Xb1da0SC0KpxruVvdQqZ8Ps2pqXKoZ2dlWy+1V78BeHe87rP5R9wTPS1uIhhQNx+HLLNXWK+zdy69XqXmE55M+6YMmudxQ9DlDbXzw1V3auHGjOjo6khJMN/f85CfaunVr2PJs8wv3SsUUCAE+EP2oOV6c5YaOqLP7F9rfvbNMiAf96u3booMnfqY9Jx7Wod5DZUI8iH9ILRviQTR8vPUqNY94hxSXV24IcWBiEeQA4BxBDgDOEeQA4BxBDgDOEeQA4Fw6On8gOQMh7o46AQB1LMR2Pq6pkQOAcwQ5ADhHkAOAc6mVq1aHy/KiYy35y/SXr1iuzS/8djwGAFdabz2PS/SnuXCJ/pYtW5VKhdtjcIk+ALhHkAOAcwQ5ADhHkAOAcwQ5ADhHkAOAcwQ5ADhHkAOAc1GQxzdeiS4JirvjAgBAPRrOaOvI5aiRA4B3BDkAOEeQA4BzBDkmXENGmjNDWjZbmt8opZJyALVBkE+FVulvXyv99PXSW85Kyryz8L58vfRPN0gPv1X6+Ruk790o3Xuz9KOXS9fb87RRANQAQT5FmpukeRborWWqqzNmSk/rkLJJf73LzpH+aJN0dbt08JD03cek/9ol7eyTOhZL779e+vMVfOCAWmC7qkNXPE368eukd1nwNSRl9S7sj37yM+m6j0lP+VfptV+Xbvy89PR/lt75qDRg1fHrLeivtZ0XgIlFkNehRqutt1gyZhy9O30HpPfeJd3fnRQkhqxG/m93Sj/osedj3zKeNV0OJQF1hCBHzQ1auG/uirtnNMZtABOHIK8XWel5l0pv2yi9YH58qGL2AulN1h/KbrFha0ocZ1m4SHrHNdL/+w3pW9bcdq30qrMlq9SPMdtqw29+ss3rEmlFxmr+bdLLnyp96hXSN6358JXSBc3JyCZly9t4gfT3vy79x2ukr7xY+u21Np9TPQ3FljU7HOwfknYcj4sATByCvF5YOD7lQgvKK6RXdMRBvvCcuD8079ggLS487cNC9pXPkb57vfT286UnW0ivsWbTOukvXir9u4X7uUWniaRnSK9/ivRb50nnr7DQt+D/wJOkK21566257nLpy1b28jm2X5kpvftl0meulp5v67FurnTxubZTsWV+2ea95BQ+OfMWSpe0Sj2HpG8fTAoBTBjbHJOL9rm/ytQalD73Xxa0X7Vw3Ra/HTt+Jb3la9IbrLnJhv1qIB41vGvXWZj+udWOG7ukj37TdgL/YLVpa178benhXmmlhfsHrRZf6rfFlE3/UquZNz8qPfefbLpbpWu+Id3TbQE+S/o9q5m/5ZnSDdb9UVv2Rhu+4WO2w3hAOmHTr7Dlvs3CvSJbzuqVVtO3dV1l6/7JO6V7+5JhACbMKdSrUFMW5A/ukO7YKt3XGQd5z3HpO1usFmvNHRbuu22cYKGF4x+utjfPQvxdn5f+ygJ5d4+FrDU/e0h63R3WbzO45CLpGSWSvGmeBf1e6Y3fs9C3ZD5hwf+rzVZTt/59NnzhKvsGsFT656/bTsWW/YQNP2rr9CUb/ne7bQT71Fxp6zA7mluBFul3nid94iXS119jO4Y3Sd+y/sUHpN//ou14tkdHVwBMMILcG3vHXrhB6khZUN4rfeFwUl5gr4X+Vw9JmTbp6lJniVit+FP3ScVHOfZa0P7AAjs4aN237Ym7h9mO5NuPSeF3y7lzpPklPj1LF0lX2U7gwrnSWU22Q7Jl7bOafpN18zsnUBsEuTMpq2FfYSGpAenHT1hYZywki5pGe1f3hmMgFvYrbNzi30iHrIb9y1I/Oto8Q80+2GEhvr/E4bYTluJhlExWai7+0dPm+6efkZ70T9KmT0nXf0n6oH3DWGY1/PeGWvqz4x9ZAUwsgtyZbIu0MFRtLZ3f+lLpwbdIDxc1v3iT9O7kGHar1YSLs7PfkvhQ/nh7oSGpsz/u3GdBX2qUXgvrEOQpC/ExJ9HY9Ecs6PfbTmTrAenuHdLf3y4983PSd618zXkW6BfZziYZHcDEIMidabCacLhYKITmrkPS5jLNoxakjxyUdlrwFlecJ1uXrct7fmw7Cet+0jppNbVyYEIR5M7090knwi+Gg9Jt35Su/dQ4zb9KN/00rkFPtb37pN223k0zpJUF56oDqB5B7kx/l7Q9JHODtGZWXOZBtjG+QVguZzuWsCMCMGEI8jo0YLXt8Dtjs4XfmOPQ3dKd+61toXjNJVa7dXKYYv250gJb5yO27g/Xw1cEYBohyOvQ/mPRCSCav0BaXpzklvDfvl/aYmE/Z6n010+Rzi4R5mdbcL77Mmlm0l9Tto5vvlp67tyxP6yGT9glG6T3W9Nk6/yNn0uPlzgbBsDpI8jr0OM7pUf6pNYO6eMvtxD8NemTvy5tSk73OLRN+iMLxE6r4T7Jwvr2G6XPPl9615XSe54tfe310vdeLF09KSkea7d1vfUG6Z7XSP94ja3L06UP2Dp983XSFzfZjsXW9Qf/Lb1vezIBgAlDkE+Rbgvqnv645l2sZ5/0x3dZrduGzztLun699OSiUL7rTullt0t3H5eaZ0hPWSXddLl043nS+mbpgUekP7hHGnW6uNWEu2yePQPxoZtS+m1Yn9Wce8uNYOXdxfOwju89KP3IFtZutfJrz7d1uVR6ua3T+W3Snl32fD5v63ZvfIk/gImVWrlyVS5nW2L4ESo85KxZsWK5Nr/ojngM1ES417hVUpUbik5AKSnTIHXMtjC3EXcfkQ6UOrHbtFvIL7HAnGHjHe2yGr0FanRmSwkNYddt7/XAcAqPFs4Pz1gzZNOX+02y7Dxsuhkt0vxwrrs1vT0W4sekfbbTKrM41EDrredp48aN6uiwr0mYlu655x5t2bLVtlfb6KyhRj5FBi0lB8YJ8WDQgnvXQen+A+VDPDhiwf3QXqud75EeOVo+xIOwzHIhHoQdehhnnFmUn4eVddqOZJut8907pZ/bej9BiAM1R5ADgHMEOQA4R5ADgHMEOQA4R5ADgHMEOQA4R5ADgHMEOQA4R5ADgHPlL9HfvDkeA4Arra2tXKI/zXGJPgBMM+noPhjJA/fEAAA/8plNjRwAnCPIAcA5ghwAnCPIAcA5ghwAnCPIAcA5ghwAnCPIAcA5ghwAnCPIAcA5ghwAnIuCfPT9VrjnCgDUs5DRcU7HXdTIAcA5ghwAnCPIAcA5ghwAnCPIAcA5ghwAnCPIAcA5ghwAnCPIAcA5ghwAnCPIAcC5tHIjV+wnF++PtAEA9Scf2OHPGmrkAOAcQQ4AzhHkAOAcQQ4AzhHkAOAcQQ4AzhHkAOAcQQ4AzhHkAOAcQQ4AzhHkAOAcQQ4AziVBHt8lK38fFgBA/cvHNTVyAHCOIAcA5whyAHCOIAcA5whyAHCOIAcA5whyAHCOIAcA5whyAHCOIAcA5whyAHAuDvKC+6sU3HUFAFCncgUxTY0cAJwjyAHAOYIcAJwjyAHAOYIcAJwjyAHAOYIcAJwjyAHAOYIcAJwjyAHAOYIcAJxLD1+uH124zz1WAKD+5bPa2pbd1MgBwDmCHACcI8gBwDmCHACcI8gBwDmCHACcI8gBwDmCHACcI8gBwDmCHACcI8gBwDmCHACcsyDPjdwqK+rgxlkAUM/ilA43zIo6qJEDgHcEOQA4R5ADgHMEOQA4R5ADgHMEOQA4R5ADgHMEOQA4R5ADgHMEOQA4R5ADgHNJkI++38pwNwCgPiVBHVrUyAHAOYIcAJwjyAHAOYIcAJwjyAHAOYIcAJwjyAHAOYIcAJwjyAHAOYIcAJwjyAHAOYIcAJxLR3dcKbj5CgDAhzizc9TIAcA7ghwAnCPIAcA5ghwAnCPIAcA5ghwAnCPIAcA5ghwAnCPIAcA5ghwAnCPIAcC59Mj9VeKbrnC/FQCof4VZTY0cAJwjyAHAOYIcAJwjyAHAOYIcAJwjyAHAOYIcAJwjyAHAOYIcAJwjyAHAOYIcAJwrEeS50RfxAwDqUHx/rIAaOQA4R5ADgHMEOQA4R5ADgHMEOQA4R5ADgHMEOQA4R5ADgHMEOQA4R5ADgHMEOQA4R5ADgHNRkEe3XeFGWQDgQz6vk/tmUSMHAOcIcgBwjiAHAOcIcgBwjiAHAOcIcgBwjiAHAOcIcgBwjiAHAOcIcgBwjiAHAOeGg3z4fiv5a/gBAPUryerQokYOAM4R5ADgHEEOAM4R5ADgHEEOAM4R5ADgHEEOAM4R5ADgHEEOAM4R5ADgHEEOAM5ZkI/cYIXbrACAH/nMpkYOAM4R5ADgHEEOAM4R5ADgHEEOAM4R5ADgHEEOAM4R5ADgHEEOAM4R5ADgHEEOAM4R5ADgXHrkTlncMgsAfCjM6xw1cgDwjiAHAOcIcgBwjiAHAOcIcgBwjiAHAOcIcgBwjiAHAOcIcgBwjiAHAOcIcgBwrkyQc98VAKh/cVZTIwcA5whyAHCOIAcA5whyAHCOIAcA5whyAHCOIAcA5whyAHCOIAcA5whyAHCOIAcA5whyAHAuHd1yJTwkHcOdAIC6FOf0SFJTIwcA5whyAHCOIAcA5whyAHCOIAcA5whyAHCOIAcA5whyAHCOIAcA5whyAHCOIAcA56IgH31vFe60AgAuxDddoUYOAN4R5ADgHEEOAM4R5ADgHEEOAM4R5ADgHEEOAM4R5ADgHEEOAM4R5ADgHEEOAM5FQZ6KOk10m5XhPgBAPUvimho5ADhHkAOAcwQ5ADhHkAOAcwQ5ADhHkAOAcwQ5ADhHkAOAcwQ5ADhHkAOAcwQ5ADhHkAOAc1GQR/fKGja6DwBQ36iRA4BzBDkAOEeQA4BzBDkAOEeQA4BzBDkAOEeQA4BzBDkAOEeQA4BzBDkAOEeQA4BzBDkAeBRui5XcGosgBwDnCHIAcI4gBwDnCHIAcI4gBwDnCHIAcI4gBwDnCHIAcI4gBwDnCHIAcI4gBwDnLMjji/WTS/YLOgAA9S5ENjVyAHCOIAcA5whyAHCOIAcA5whyAHCOIAcA5whyAHCOIAcA5whyAHCOIAcA5whyAHCOIAcA55Ig505ZAOAVNXIAcI4gBwDnCHIAcI4gBwDnCHIAcI4gBwDnCHIAcI4gBwDnCHIAcI4gBwDnCHIAcI4gBwDnCHIAcI4gBwDnCHIAcI4gBwDnCHIAcI4gBwDnCHIAcI4gBwDnCHIAcI4gBwDnCHIAcI4gBwDnCHIA8CiVtA1BDgDOEeQA4BxBDgDOEeQA4BxBDgDOEeQA4BxBDgDOEeQA4BxBDgDOEeQA4BxBDgDOFQR5LmkDAOpeQWRTIwcA5whyAHCOIAcA5whyAHCOIAcA5whyAHCOIAcA5whyAHCOIAcA5whyAHCOIAcA5wqCPDWqBQDwgRo5ADhHkAOAcwQ5ADhHkAOAcwQ5ADhHkAOAcwQ5ADhHkAOAcwQ5ADhHkAOAcwQ5ADhHkAOAcwQ5AHhUcINDghwAnCPIAcA5ghwAnCPIAcA5ghwAnCPIAcA5ghwAnCPIAcA5ghwAnCPIAcA5ghwAnCPIAcCxcMsVghwAnCPIAcA5ghwAnCPIAcA5ghwAnCPIAcA5ghwAnCPIAcA5ghwAnCPIAcA5ghwAnLMgD1fqAwC8okYOAM4R5ADgHEEOAM4R5ADgHEEOAM4R5ADgHEEOAM4R5ADgHEEOAM4R5ADgHEEOAM4R5ADgXBLkqfjWWdw/CwDcoUYOAM4R5ADgHEEOAM4R5ADgHEEOAM6VCPLkDBYAQH0LYW1NFOSceggAfsT5PRLaIzXyXNwKgwYGB9XQ0BAXAADqRl9fnwYGBpO+WBzkcbznH9Tb06vGpqaoGwBQP050damntyfpizM7Hbdi+e7evl41NTYmfQCAenGis1N9vX1Rd5zZKauRDyd50mGtzuOdmj27XdlsNi4DAEy5np4e7dq1W50W5iPZHR1aCX0jIR709/fr0KFDmjtvXlwAAJhy27Zv14EDB6KMjlhmh9ge/rEzFYV4eIjT/MjRI9aV0sKFHdTMAWAKhZr4I4/8Urt379bRY0ejsvisFWvsb+T0w0TUnTzs3rNHXd1dWrxkiebMmaPW1lbOZgGASRDOTjl8+LB27typn993nzY/tll79+yNzzAsDG3rSS1fviKXsyH2YE0YI+4OD/nybLZBM2fMVGNTo5qbmpXJpKN5xQ+FxhSMMv5QU3GESqqbQe0XX/USTtsUv7Rm6p77xBi15Uy+Khc/tWtfYelT/tyqm0N8NKMaRTOw3lASTjHs7e1RrwV6OCbe3z8QLSuqiVvHqO7lKyzIwzY2HNzWE/6S/vivoDx+GG4XisrGU3FwddNXUv38xx+hqtWr9XOrtSlefN0LW2YdiwLhdFWYtPKcq3xxKi6/uvmnqk3qU10/6x0O6OHuuB2ty3DZyPASQR7mFNrWEf2N7h7TLhDPqAoVJi9e3hhVL36K5z+eKpddSVXrhpqLNtypNM7iK69ZhTGqfGpVvzYVV6+69T/V6aPxo7/Ctj0WloX+fHmYZvmKlbYNh83YNuTwN6bbFJaFf3Fh9FcoGbu8ioOndvpKKs6/kqomH3/iKtdsAmZQ36p97+LNpY5VuXqVJx9njBq/NFW/9hUmrzj/yZ4+6rVSa0fDhtuFZXF31Be6V1iQhw95FM5JYBd2x38j7eLaeaGorBoVJq84/6oXP8XzH0+Vy640g6pnP9Vq/QSijWbqVL/4KudQxeRR8FSjwuRTPv+JXr8QzFHLHqO/8JDMJekfMywOctsO4sc4xKO2dUR/Sdv640GhnR9WJJ64rGQOp6/C5BXnX/Xiazv/8VT92lVS49lXNuUrUKVoM5s6NV58EiOnp8p1q2rZQYXJK86/xtMXjxD12UM03xDSw92jy6K+0B26Vqy0II+2IYuK0E4Ce1SwJ2Vx27qiv7hdKBmrvIqDK4xQyRTPv5Kqlj+Vy54Oqn360YZTv+LNuYaqmH3V61b15BVmUHFwtSsw/vRjhlpBtMzwF02brEGJAM+XWZCvsm083syTRE/aUXHoiUMg+ivRLlTUW2zM+MUqDK6k4vwryD//01bl5OOp9rnVct0mQtXPb4olm1X9qnL1qnp+NX5p4rA7fRWfW8XZjz/CqU4erU/0V9hO1jIf3ElZXJTS/wfg8pUHaNMAFAAAAABJRU5ErkJggg==;" vertex="1" parent="1">
          <mxGeometry x="1466.5" y="250" width="370" height="567" as="geometry" />
        </mxCell>
      </root>
    </mxGraphModel>
  </diagram>
</mxfile>
